<?xml version="1.0" encoding="utf-8"?>
<!-- Generator: Adobe Illustrator 24.0.1, SVG Export Plug-In . SVG Version: 6.00 Build 0)  -->
<svg version="1.1" id="图层_1" xmlns="http://www.w3.org/2000/svg" xmlns:xlink="http://www.w3.org/1999/xlink" x="0px" y="0px"
	 viewBox="0 0 463.6 306.2" style="enable-background:new 0 0 463.6 306.2;" xml:space="preserve">
<style type="text/css">
	.st0{fill:#FFFFFF;}
	.st1{fill:#A9FF00;}
</style>
<path class="st0" d="M102.2,0v27.6H23.5v6.9h71.7V62H23.5v34.5H1V0H102.2z"/>
<path class="st0" d="M144.2,96.5c-10.9,0-20.1-4.7-27.8-14.1c-7.7-9.4-11.5-20.8-11.5-34.1s3.8-24.7,11.5-34.1
	C124.1,4.7,133.4,0,144.2,0h33.7c10.9,0,20.1,4.7,27.8,14.1c7.7,9.4,11.5,20.8,11.5,34.1s-3.8,24.7-11.5,34.1
	c-7.7,9.4-16.9,14.1-27.8,14.1H144.2z M144.2,27.6c-4.6,0-8.6,2-11.9,6.1c-3.3,4-4.9,8.9-4.9,14.6c0,5.7,1.6,10.6,4.9,14.6
	c3.3,4,7.3,6.1,11.9,6.1h33.7c4.6,0,8.6-2,11.9-6.1c3.3-4,4.9-8.9,4.9-14.6c0-5.7-1.6-10.6-4.9-14.6c-3.3-4-7.3-6.1-11.9-6.1H144.2z
	"/>
<path class="st0" d="M227.8,0h75.8c7,0,12.9,3,17.9,9.1c4.9,6.1,7.4,13.4,7.4,21.9s-2.5,15.9-7.4,21.9c-2.8,3.4-6,5.9-9.5,7.4
	l18,36.1h-26.4L286.5,62h-36.2v34.5h-22.5V0z M250.3,27.6v6.9h53.4c0.8,0,1.5-0.3,2-1c0.5-0.7,0.8-1.5,0.8-2.4c0-1-0.3-1.8-0.8-2.4
	c-0.5-0.7-1.2-1-2-1H250.3z"/>
<path class="st0" d="M102.2,103.4V131H23.5v6.9h71.7v27.6H23.5v6.9h78.6v27.6H1v-96.5H102.2z"/>
<path class="st0" d="M221,103.4V131h-81.5c-0.8,0-1.5,0.3-2,1c-0.5,0.7-0.8,1.5-0.8,2.4s0.3,1.8,0.8,2.4c0.5,0.7,1.2,1,2,1h56.2
	c7,0,12.9,3,17.9,9.1s7.4,13.4,7.4,21.9c0,8.5-2.5,15.9-7.4,21.9c-4.9,6.1-10.9,9.1-17.9,9.1h-81.5v-27.6h81.5c0.8,0,1.5-0.3,2-1
	c0.5-0.7,0.8-1.5,0.8-2.4s-0.3-1.8-0.8-2.4c-0.5-0.7-1.2-1-2-1h-56.2c-7,0-12.9-3-17.9-9.1c-4.9-6.1-7.4-13.4-7.4-21.9
	s2.5-15.9,7.4-21.9c4.9-6.1,10.9-9.1,17.9-9.1H221z"/>
<path class="st0" d="M329.7,103.4V131h-78.6v6.9h74.3v27.6h-74.3v6.9h78.6v27.6H228.6v-96.5H329.7z"/>
<path class="st0" d="M442.1,103.4V131h-78.6v6.9h74.3v27.6h-74.3v6.9h78.6v27.6H341v-96.5H442.1z"/>
<path class="st0" d="M39.7,209.2h62.5v27.6H39.7c-4.7,0-8.7,2-12,6.1c-3.3,4-5,8.9-5,14.6c0,5.7,1.7,10.6,5,14.6
	c3.3,4,7.3,6.1,12,6.1h62.5v27.6H39.7c-11,0-20.3-4.7-28.1-14.1C3.9,282.1,0,270.8,0,257.5c0-13.3,3.9-24.7,11.6-34.1
	C19.4,213.9,28.8,209.2,39.7,209.2z"/>
<path class="st0" d="M114.9,209.2h22.5v68.9l81.7,0.1v27.5H114.9V209.2z"/>
<path class="st0" d="M228.6,257.5v-48.2h22.5v48.2c0,5.7,1.7,10.6,5,14.6c3.3,4,7.3,6.1,11.9,6.1h22.5c4.7,0,8.6-2,11.9-6.1
	c3.3-4,5-8.9,5-14.6v-48.2h22.5v48.2c0,13.3-3.9,24.7-11.6,34.1c-7.7,9.4-17,14.1-27.9,14.1h-22.5c-10.9,0-20.2-4.7-27.9-14.1
	C232.5,282.1,228.6,270.8,228.6,257.5z"/>
<path class="st0" d="M341,209.7h75.8c7,0,12.9,3,17.9,9.1c4.9,6.1,7.4,13.4,7.4,21.9c0,6.4-1.4,12.2-4.2,17.2
	c2.8,5.1,4.2,10.8,4.2,17.2c0,8.5-2.5,15.9-7.4,21.9c-4.9,6.1-10.9,9.1-17.9,9.1H341V209.7z M363.4,237.2v6.9h53.4
	c0.8,0,1.5-0.3,2-1c0.5-0.7,0.8-1.5,0.8-2.4c0-1-0.3-1.8-0.8-2.4c-0.5-0.7-1.2-1-2-1H363.4z M363.4,271.7v6.9h53.4
	c0.8,0,1.5-0.3,2-1c0.5-0.7,0.8-1.5,0.8-2.4s-0.3-1.8-0.8-2.4s-1.2-1-2-1H363.4z"/>
<path class="st1" d="M445,23.8l-20.7,23.6c-0.9,1.1-2.7,0.8-3.3-0.4v0c-0.4-0.7-0.2-1.6,0.3-2.2l22.9-26.1c0.5-0.6,0.6-1.5,0.3-2.2
	l-4.8-9.9c-0.6-1.3-2.4-1.5-3.3-0.4l-32.1,36.6c-0.5,0.6-0.6,1.5-0.3,2.2L417.7,73c0.6,1.3,2.4,1.5,3.3,0.4l20.6-23.5
	c0.9-1.1,2.7-0.8,3.3,0.4l1.3,2.7c0.4,0.7,0.2,1.6-0.3,2.2l-22.8,26c-0.5,0.6-0.6,1.5-0.3,2.2l4.9,10.1c0.6,1.3,2.4,1.5,3.3,0.4
	l32.1-36.6c0.5-0.6,0.6-1.5,0.3-2.2l-15.1-31C447.7,23,446,22.7,445,23.8z"/>
<path class="st0" d="M398.2,41.9l33.5-38.3c1.1-1.3,0.2-3.3-1.5-3.3l-12.9-0.1c-0.6,0-1.1,0.2-1.5,0.7L379.8,42
	c-0.5,0.6-0.6,1.5-0.3,2.2l25.1,51.4c0.3,0.7,1,1.1,1.8,1.1h14.1c1.5,0,2.4-1.5,1.8-2.9l-24.3-49.8
	C397.6,43.4,397.7,42.5,398.2,41.9z"/>
<path class="st0" d="M374.3,42.2L374.3,42.2l33.9-38.7c1.1-1.3,0.2-3.3-1.5-3.3h-12.7c-0.6,0-1.1,0.2-1.5,0.7l-35.7,40.7
	c-0.5,0.6-0.6,1.5-0.3,2.2l25.3,51.9c0.3,0.7,1,1.1,1.8,1.1l14-0.2c1.5,0,2.4-1.6,1.8-2.9L374.3,42.2z"/>
<path class="st0" d="M351.9,41.9l33.7-38.4c1.1-1.3,0.2-3.3-1.5-3.3l-13.4-0.1c-0.6,0-1.1,0.2-1.5,0.7l-35.8,40.9
	c-0.5,0.6-0.6,1.5-0.3,2.2l25.3,51.7c0.3,0.7,1,1.1,1.8,1.1l13.9-0.2c1.5,0,2.4-1.6,1.8-2.9l-24.2-49.6
	C351.3,43.4,351.4,42.5,351.9,41.9z"/>
</svg>
